<svg width="21" height="14" viewBox="0 0 21 14" fill="none" xmlns="http://www.w3.org/2000/svg">
<path d="M17.0342 4.98438V3.01562H15.0654V4.98438H17.0342ZM17.0342 7.98438V6.01562H15.0654V7.98438H17.0342ZM14.0342 4.98438V3.01562H12.0654V4.98438H14.0342ZM14.0342 7.98438V6.01562H12.0654V7.98438H14.0342ZM14.0342 12.0156V10H6.06543V12.0156H14.0342ZM5.03418 4.98438V3.01562H3.06543V4.98438H5.03418ZM5.03418 7.98438V6.01562H3.06543V7.98438H5.03418ZM6.06543 6.01562V7.98438H8.03418V6.01562H6.06543ZM6.06543 3.01562V4.98438H8.03418V3.01562H6.06543ZM9.06543 6.01562V7.98438H11.0342V6.01562H9.06543ZM9.06543 3.01562V4.98438H11.0342V3.01562H9.06543ZM18.0654 0.015625C18.5967 0.015625 19.0498 0.21875 19.4248 0.625C19.8311 1 20.0342 1.45313 20.0342 1.98438V12.0156C20.0342 12.5469 19.8311 13.0156 19.4248 13.4219C19.0498 13.7969 18.5967 13.9844 18.0654 13.9844H2.03418C1.50293 13.9844 1.03418 13.7969 0.62793 13.4219C0.25293 13.0156 0.0654297 12.5469 0.0654297 12.0156V1.98438C0.0654297 1.45313 0.25293 1 0.62793 0.625C1.03418 0.21875 1.50293 0.015625 2.03418 0.015625H18.0654Z" fill="#ECECEC"/>
</svg>
