<svg width="17" height="20" viewBox="0 0 17 20" fill="none" xmlns="http://www.w3.org/2000/svg">
<path d="M14.7368 13.9844L16.7524 16V16.9844H0.721191V16L2.73682 13.9844V9.01562C2.73682 7.45312 3.12744 6.09375 3.90869 4.9375C4.72119 3.78125 5.83057 3.03125 7.23682 2.6875V1.98438C7.23682 1.57812 7.37744 1.23438 7.65869 0.953125C7.93994 0.640625 8.29932 0.484375 8.73682 0.484375C9.17432 0.484375 9.53369 0.640625 9.81494 0.953125C10.0962 1.23438 10.2368 1.57812 10.2368 1.98438V2.6875C11.6431 3.03125 12.7368 3.78125 13.5181 4.9375C14.3306 6.09375 14.7368 7.45312 14.7368 9.01562V13.9844ZM8.73682 19.9844C8.17432 19.9844 7.68994 19.7969 7.28369 19.4219C6.90869 19.0469 6.72119 18.5781 6.72119 18.0156H10.7524C10.7524 18.5469 10.5493 19.0156 10.1431 19.4219C9.73682 19.7969 9.26807 19.9844 8.73682 19.9844Z" fill="#041832"/>
</svg>
