<svg width="18" height="18" viewBox="0 0 18 18" fill="none" xmlns="http://www.w3.org/2000/svg">
<path d="M3.37793 9.70312C4.25293 10.5781 5.31543 11.0156 6.56543 11.0156C7.81543 11.0156 8.87793 10.5781 9.75293 9.70312C10.6279 8.82812 11.0654 7.76562 11.0654 6.51562C11.0654 5.26562 10.6279 4.20313 9.75293 3.32812C8.87793 2.45312 7.81543 2.01562 6.56543 2.01562C5.31543 2.01562 4.25293 2.45312 3.37793 3.32812C2.50293 4.20313 2.06543 5.26562 2.06543 6.51562C2.06543 7.76562 2.50293 8.82812 3.37793 9.70312ZM12.5654 11.0156L17.5342 15.9844L16.0342 17.4844L11.0654 12.5156V11.7188L10.7842 11.4375C9.59668 12.4688 8.19043 12.9844 6.56543 12.9844C4.75293 12.9844 3.20605 12.3594 1.9248 11.1094C0.674805 9.85938 0.0498047 8.32812 0.0498047 6.51562C0.0498047 4.70312 0.674805 3.17188 1.9248 1.92188C3.20605 0.640625 4.75293 0 6.56543 0C8.37793 0 9.90918 0.640625 11.1592 1.92188C12.4092 3.17188 13.0342 4.70312 13.0342 6.51562C13.0342 7.17188 12.8779 7.92188 12.5654 8.76562C12.2529 9.57812 11.8936 10.2344 11.4873 10.7344L11.7686 11.0156H12.5654Z" fill="#01080E"/>
</svg>
