<svg width="19" height="12" viewBox="0 0 19 12" fill="none" xmlns="http://www.w3.org/2000/svg">
<path d="M11.7524 6.98438V5.01562H8.75244V2.01562H6.73682V5.01562H3.73682V6.98438H6.73682V9.98438H8.75244V6.98438H11.7524ZM14.7524 4.5L18.7368 0.515625V11.4844L14.7524 7.5V11.0156C14.7524 11.2969 14.6431 11.5312 14.4243 11.7188C14.2368 11.9062 14.0024 12 13.7212 12H1.72119C1.43994 12 1.20557 11.9062 1.01807 11.7188C0.830566 11.5312 0.736816 11.2969 0.736816 11.0156V0.984375C0.736816 0.703125 0.830566 0.46875 1.01807 0.28125C1.20557 0.09375 1.43994 0 1.72119 0H13.7212C14.0024 0 14.2368 0.09375 14.4243 0.28125C14.6431 0.46875 14.7524 0.703125 14.7524 0.984375V4.5Z" fill="#041832"/>
</svg>
