<svg width="17" height="20" viewBox="0 0 17 20" fill="none" xmlns="http://www.w3.org/2000/svg">
<path d="M14.7363 13.9844L16.752 16V16.9844H0.720703V16L2.73633 13.9844V9.01562C2.73633 7.45312 3.12695 6.09375 3.9082 4.9375C4.7207 3.78125 5.83008 3.03125 7.23633 2.6875V1.98438C7.23633 1.57812 7.37695 1.23438 7.6582 0.953125C7.93945 0.640625 8.29883 0.484375 8.73633 0.484375C9.17383 0.484375 9.5332 0.640625 9.81445 0.953125C10.0957 1.23438 10.2363 1.57812 10.2363 1.98438V2.6875C11.6426 3.03125 12.7363 3.78125 13.5176 4.9375C14.3301 6.09375 14.7363 7.45312 14.7363 9.01562V13.9844ZM8.73633 19.9844C8.17383 19.9844 7.68945 19.7969 7.2832 19.4219C6.9082 19.0469 6.7207 18.5781 6.7207 18.0156H10.752C10.752 18.5469 10.5488 19.0156 10.1426 19.4219C9.73633 19.7969 9.26758 19.9844 8.73633 19.9844Z" fill="#C5C5C5"/>
</svg>
