<svg width="19" height="12" viewBox="0 0 19 12" fill="none" xmlns="http://www.w3.org/2000/svg">
<path d="M11.752 6.98438V5.01562H8.75195V2.01562H6.73633V5.01562H3.73633V6.98438H6.73633V9.98438H8.75195V6.98438H11.752ZM14.752 4.5L18.7363 0.515625V11.4844L14.752 7.5V11.0156C14.752 11.2969 14.6426 11.5312 14.4238 11.7188C14.2363 11.9062 14.002 12 13.7207 12H1.7207C1.43945 12 1.20508 11.9062 1.01758 11.7188C0.830078 11.5312 0.736328 11.2969 0.736328 11.0156V0.984375C0.736328 0.703125 0.830078 0.46875 1.01758 0.28125C1.20508 0.09375 1.43945 0 1.7207 0H13.7207C14.002 0 14.2363 0.09375 14.4238 0.28125C14.6426 0.46875 14.752 0.703125 14.752 0.984375V4.5Z" fill="#C5C5C5"/>
</svg>
