<svg width="24" height="19" viewBox="0 0 24 19" fill="none" xmlns="http://www.w3.org/2000/svg">
<path d="M21 0C21.5312 0 22 0.203125 22.4062 0.609375C22.8125 1.01563 23.0156 1.48438 23.0156 2.01562V14.0156C23.0156 14.5469 22.8125 15.0156 22.4062 15.4219C22 15.7969 21.5312 15.9844 21 15.9844H17.0156V14.0156H21V2.01562H3V14.0156H6.98438V15.9844H3C2.46875 15.9844 2 15.7969 1.59375 15.4219C1.1875 15.0156 0.984375 14.5469 0.984375 14.0156V2.01562C0.984375 1.48438 1.1875 1.01563 1.59375 0.609375C2 0.203125 2.46875 0 3 0H21ZM6 18.9844L12 12.9844L18 18.9844H6Z" fill="#222222"/>
</svg>
