<svg width="20" height="20" viewBox="0 0 20 20" fill="none" xmlns="http://www.w3.org/2000/svg">
<path d="M12.2031 12.2031L16 4L7.79688 7.79688L4 16L12.2031 12.2031ZM2.92188 2.96875C4.89062 1 7.25 0.015625 10 0.015625C12.75 0.015625 15.0938 1 17.0312 2.96875C19 4.90625 19.9844 7.25 19.9844 10C19.9844 12.75 19 15.1094 17.0312 17.0781C15.0938 19.0156 12.75 19.9844 10 19.9844C7.25 19.9844 4.89062 19.0156 2.92188 17.0781C0.984375 15.1094 0.015625 12.75 0.015625 10C0.015625 7.25 0.984375 4.90625 2.92188 2.96875ZM9.20312 9.25C9.42188 9.03125 9.6875 8.92188 10 8.92188C10.3125 8.92188 10.5625 9.03125 10.75 9.25C10.9688 9.4375 11.0781 9.6875 11.0781 10C11.0781 10.3125 10.9688 10.5781 10.75 10.7969C10.5625 10.9844 10.3125 11.0781 10 11.0781C9.6875 11.0781 9.42188 10.9844 9.20312 10.7969C9.01562 10.5781 8.92188 10.3125 8.92188 10C8.92188 9.6875 9.01562 9.4375 9.20312 9.25Z" fill="#222222"/>
</svg>
