<svg width="20" height="20" viewBox="0 0 20 20" fill="none" xmlns="http://www.w3.org/2000/svg">
<path d="M13.0938 17.3594C12.4375 17.6406 11.7344 17.8281 10.9844 17.9219V19.9375C12.0781 19.8438 13.1094 19.5625 14.0781 19.0938L13.0938 17.3594ZM2.07812 10.9844C2.17188 11.7344 2.35938 12.4375 2.64062 13.0938L0.90625 14.0781C0.4375 13.1094 0.15625 12.0781 0.0625 10.9844H2.07812ZM13.0938 2.64062C12.4375 2.35938 11.7344 2.17188 10.9844 2.07812V0.0625C12.0781 0.15625 13.1094 0.4375 14.0781 0.90625L13.0938 2.64062ZM17.9219 9.01562C17.8281 8.26562 17.6406 7.5625 17.3594 6.90625L19.0938 5.92188C19.5625 6.89062 19.8438 7.92188 19.9375 9.01562H17.9219ZM6.90625 17.3594C7.5625 17.6406 8.26562 17.8281 9.01562 17.9219V19.9375C7.92188 19.8438 6.89062 19.5625 5.92188 19.0938L6.90625 17.3594ZM9.01562 2.07812C8.26562 2.17188 7.5625 2.35938 6.90625 2.64062L5.92188 0.90625C6.89062 0.4375 7.92188 0.15625 9.01562 0.0625V2.07812ZM16.375 5.17188C15.9375 4.57812 15.4219 4.0625 14.8281 3.625L15.8125 1.89062C16.6875 2.51562 17.4531 3.26562 18.1094 4.14062L16.375 5.17188ZM2.64062 6.90625C2.35938 7.5625 2.17188 8.26562 2.07812 9.01562H0.0625C0.15625 7.92188 0.4375 6.89062 0.90625 5.92188L2.64062 6.90625ZM17.9219 10.9844H19.9375C19.8438 12.0781 19.5625 13.1094 19.0938 14.0781L17.3594 13.0938C17.6406 12.4375 17.8281 11.7344 17.9219 10.9844ZM14.8281 16.375C15.4219 15.9375 15.9375 15.4219 16.375 14.8281L18.1094 15.8125C17.4844 16.6875 16.7344 17.4531 15.8594 18.1094L14.8281 16.375ZM5.17188 3.625C4.57812 4.09375 4.0625 4.60938 3.625 5.17188L1.89062 4.1875C2.51562 3.3125 3.28125 2.54688 4.1875 1.89062L5.17188 3.625ZM3.625 14.8281C4.09375 15.4219 4.60938 15.9375 5.17188 16.375L4.1875 18.1094C3.3125 17.4531 2.54688 16.6875 1.89062 15.8125L3.625 14.8281ZM10.9844 4.98438V9.57812L14.6875 13.2812L13.2812 14.6875L9.01562 10.4219V4.98438H10.9844Z" fill="#222222"/>
</svg>
