<svg width="20" height="14" viewBox="0 0 20 14" fill="none" xmlns="http://www.w3.org/2000/svg">
<path d="M14.2656 7.70312C14.4844 7.89062 14.7344 7.98438 15.0156 7.98438C15.2969 7.98438 15.5312 7.89062 15.7188 7.70312C15.9062 7.51562 16 7.28125 16 7C16 6.71875 15.9062 6.48438 15.7188 6.29688C15.5312 6.10938 15.2969 6.01562 15.0156 6.01562C14.7344 6.01562 14.4844 6.10938 14.2656 6.29688C14.0781 6.48438 13.9844 6.71875 13.9844 7C13.9844 7.28125 14.0781 7.51562 14.2656 7.70312ZM12.2969 4.70312C12.4844 4.89062 12.7188 4.98438 13 4.98438C13.2812 4.98438 13.5156 4.89062 13.7031 4.70312C13.8906 4.51562 13.9844 4.28125 13.9844 4C13.9844 3.71875 13.8906 3.48438 13.7031 3.29688C13.5156 3.10938 13.2812 3.01562 13 3.01562C12.7188 3.01562 12.4844 3.10938 12.2969 3.29688C12.1094 3.48438 12.0156 3.71875 12.0156 4C12.0156 4.28125 12.1094 4.51562 12.2969 4.70312ZM9.01562 6.01562V4.98438H7V3.01562H6.01562V4.98438H4V6.01562H6.01562V7.98438H7V6.01562H9.01562ZM19.5625 11.0781C19.6875 11.8594 19.4844 12.5469 18.9531 13.1406C18.4531 13.7031 17.8125 13.9844 17.0312 13.9844C16.3438 13.9844 15.75 13.7344 15.25 13.2344L13 10.9844H7L4.75 13.2344C4.25 13.7344 3.64062 13.9844 2.92188 13.9844C2.20312 13.9844 1.59375 13.75 1.09375 13.2812C0.625 12.7812 0.390625 12.1719 0.390625 11.4531C0.390625 11.4219 0.390625 11.3594 0.390625 11.2656C0.421875 11.1719 0.4375 11.1094 0.4375 11.0781L1.51562 3.4375C1.64062 2.46875 2.07812 1.65625 2.82812 1C3.57812 0.34375 4.45312 0.015625 5.45312 0.015625H14.5469C15.5156 0.015625 16.375 0.359375 17.125 1.04688C17.875 1.70312 18.3281 2.5 18.4844 3.4375L19.5625 11.0781Z" fill="#222222"/>
</svg>
