<svg width="20" height="20" viewBox="0 0 20 20" fill="none" xmlns="http://www.w3.org/2000/svg">
<path d="M13.9844 13.9844L7.98438 10.75V17.2656L13.9844 13.9844ZM19.9844 10V18.0156C19.9844 18.5469 19.7812 19.0156 19.375 19.4219C19 19.7969 18.5469 19.9844 18.0156 19.9844H1.98438C1.45312 19.9844 0.984375 19.7969 0.578125 19.4219C0.203125 19.0156 0.015625 18.5469 0.015625 18.0156V10C0.015625 9.46875 0.203125 9 0.578125 8.59375C0.984375 8.1875 1.45312 7.98438 1.98438 7.98438H18.0156C18.5469 7.98438 19 8.1875 19.375 8.59375C19.7812 9 19.9844 9.46875 19.9844 10ZM16 0.015625V1.98438H4V0.015625H16ZM18.0156 6.01562H1.98438V4H18.0156V6.01562Z" fill="#222222"/>
</svg>
