<svg width="20" height="19" viewBox="0 0 20 19" fill="none" xmlns="http://www.w3.org/2000/svg">
<path d="M19.8438 10.8906L17.1719 17.0312C16.7656 17.6875 16.1875 18.0156 15.4375 18.0156H7.32812C6.70312 18.0156 6.15625 17.7812 5.6875 17.3125C5.21875 16.8438 4.98438 16.2969 4.98438 15.6719V7.84375C4.98438 7.28125 5.1875 6.79688 5.59375 6.39062L12.0156 0.015625L12.4375 0.484375C12.8125 0.859375 13.1094 1.26563 13.3281 1.70312C13.4219 1.92188 13.4531 2.14062 13.4219 2.35938L12.4844 7H18.0156C18.5469 7 19 7.20312 19.375 7.60938C19.7812 8.01562 19.9844 8.48438 19.9844 9.01562V10.0938C19.9844 10.375 19.9375 10.6406 19.8438 10.8906ZM0.015625 18.0156V7H1.98438C2.26562 7 2.5 7.09375 2.6875 7.28125C2.90625 7.46875 3.01562 7.70312 3.01562 7.98438V16.9844C3.01562 17.2656 2.90625 17.5156 2.6875 17.7344C2.5 17.9219 2.26562 18.0156 1.98438 18.0156H0.015625Z" fill="#222222"/>
</svg>
