<svg width="22" height="18" viewBox="0 0 22 18" fill="none" xmlns="http://www.w3.org/2000/svg">
<path d="M12 5.01562H13.5V9.23438L17.0156 11.3438L16.2656 12.5625L12 9.98438V5.01562ZM6.60938 2.625C8.39062 0.875 10.5156 0 12.9844 0C15.4531 0 17.5625 0.875 19.3125 2.625C21.0938 4.375 21.9844 6.5 21.9844 9C21.9844 11.5 21.0938 13.625 19.3125 15.375C17.5625 17.125 15.4531 18 12.9844 18C11.9531 18 10.8125 17.75 9.5625 17.25C8.34375 16.7188 7.375 16.0938 6.65625 15.375L8.0625 13.9219C9.4375 15.2969 11.0781 15.9844 12.9844 15.9844C14.9219 15.9844 16.5781 15.3125 17.9531 13.9688C19.3281 12.5938 20.0156 10.9375 20.0156 9C20.0156 7.0625 19.3281 5.42188 17.9531 4.07812C16.5781 2.70313 14.9219 2.01562 12.9844 2.01562C11.0469 2.01562 9.39062 2.70313 8.01562 4.07812C6.67188 5.42188 6 7.0625 6 9H9L4.96875 13.0312L4.875 12.8906L0.984375 9H3.98438C3.98438 6.5 4.85938 4.375 6.60938 2.625Z" fill="#C5C5C5"/>
</svg>
