<svg width="20" height="20" viewBox="0 0 20 20" fill="none" xmlns="http://www.w3.org/2000/svg">
<path d="M10 12.4844L16 7.98438L10 3.48438V12.4844ZM18.0156 0.015625C18.5469 0.015625 19 0.21875 19.375 0.625C19.7812 1 19.9844 1.45313 19.9844 1.98438V13.9844C19.9844 14.5156 19.7812 14.9844 19.375 15.3906C19 15.7969 18.5469 16 18.0156 16H6.01562C5.48438 16 5.01562 15.7969 4.60938 15.3906C4.20312 14.9844 4 14.5156 4 13.9844V1.98438C4 1.45313 4.20312 1 4.60938 0.625C5.01562 0.21875 5.48438 0.015625 6.01562 0.015625H18.0156ZM1.98438 4V18.0156H16V19.9844H1.98438C1.45312 19.9844 0.984375 19.7969 0.578125 19.4219C0.203125 19.0156 0.015625 18.5469 0.015625 18.0156V4H1.98438Z" fill="#C5C5C5"/>
</svg>
